<?xml version="1.0" standalone="no"?>
<!DOCTYPE svg PUBLIC "-//W3C//DTD SVG 1.1//EN" "http://www.w3.org/Graphics/SVG/1.1/DTD/svg11.dtd">
<svg width="161mm" height="88mm" viewBox="3 -90 161 88" xmlns="http://www.w3.org/2000/svg" version="1.1">
<title>OpenSCAD Model</title>
<path d="
M 57.2012,-2.4873 L 61.1797,-3.06738 L 65.1289,-3.9873 L 69.0107,-5.23047 L 72.7842,-6.77832 L 76.4121,-8.6123
 L 79.8535,-10.7148 L 83.0693,-13.0674 L 86.0205,-15.6533 L 88.2686,-18.0859 L 90.749,-21.1807 L 93.0234,-24.3604
 L 94.6543,-27.0449 L 95.9424,-29.7207 L 97.0312,-32.3975 L 97.9297,-35.1084 L 98.6436,-37.8867 L 99.1797,-40.7646
 L 99.5469,-43.7744 L 99.751,-46.9502 L 99.7998,-50.3242 L 99.79,-53.874 L 99.8926,-55.9248 L 100.201,-57.2529
 L 100.812,-58.6328 L 101.964,-60.5908 L 103.436,-62.3643 L 105.136,-63.8594 L 106.974,-64.9805 L 108.832,-65.876
 L 127.353,-66.0977 L 154.604,-66.3213 L 163.336,-66.3223 L 163.336,-71.9668 L 138.906,-72.0547 L 119.229,-72.127
 L 109.883,-72.0654 L 107.747,-71.9424 L 106.589,-71.7373 L 105.064,-71.0137 L 103.33,-70.1064 L 101.716,-69.0654
 L 100.221,-67.8906 L 98.8447,-66.5801 L 97.5879,-65.1338 L 96.4473,-63.5508 L 95.4238,-61.8311 L 94.5176,-59.9727
 L 94.0371,-58.7109 L 93.7773,-57.165 L 93.6289,-49.918 L 93.4805,-42.9893 L 93.291,-41 L 92.9971,-39.5117
 L 92.1328,-36.5898 L 91.0967,-33.7842 L 89.8896,-31.0957 L 88.5146,-28.5283 L 86.9727,-26.084 L 85.2656,-23.7666
 L 83.3945,-21.5781 L 81.3613,-19.5225 L 79.2744,-17.6787 L 77.0957,-15.9902 L 74.8252,-14.457 L 72.4619,-13.0791
 L 70.0078,-11.8555 L 67.46,-10.7861 L 64.8203,-9.87207 L 62.0889,-9.11328 L 60.1406,-8.68848 L 58.2617,-8.44141
 L 52.7402,-8.30566 L 47.4746,-8.45801 L 43.9209,-8.93066 L 40.8164,-9.72461 L 37.8271,-10.7334 L 34.9619,-11.9492
 L 32.2275,-13.3633 L 29.6328,-14.9658 L 27.1865,-16.75 L 24.8965,-18.7041 L 22.7715,-20.8223 L 20.8184,-23.0928
 L 19.0469,-25.5098 L 17.4639,-28.0615 L 16.0791,-30.7412 L 14.8994,-33.5391 L 13.9336,-36.4463 L 13.1895,-39.4551
 L 12.6768,-42.5547 L 12.4258,-46.085 L 12.4512,-49.9043 L 12.7256,-53.3447 L 13.2207,-55.7393 L 13.7432,-57.502
 L 14.1631,-59.5762 L 14.6758,-64.3252 L 14.7207,-69.3232 L 14.5557,-71.708 L 14.2598,-73.9053 L 13.4941,-77.248
 L 12.377,-81.0459 L 11.1934,-84.4033 L 10.2334,-86.4268 L 9.51758,-87.7197 L 8.83203,-88.8994 L 8.1543,-89.7812
 L 5.80078,-88.5469 L 4.09473,-87.5645 L 3.29785,-86.9355 L 3.55957,-86.0615 L 4.39648,-84.4873 L 5.64453,-82.0947
 L 6.1416,-80.6631 L 7.16699,-77.9492 L 7.94141,-74.9912 L 8.46191,-71.8535 L 8.72656,-68.6006 L 8.7334,-65.2979
 L 8.47754,-62.0107 L 7.95801,-58.8027 L 7.17188,-55.7393 L 6.87988,-54.5098 L 6.69238,-52.915 L 6.55664,-47.625
 L 6.74902,-41.7832 L 7.0332,-39.2852 L 7.47266,-36.9414 L 8.08789,-34.6553 L 8.90039,-32.333 L 11.209,-27.1924
 L 12.9297,-24.0918 L 15.0303,-20.8525 L 17.2139,-17.9053 L 19.1826,-15.6797 L 22.5322,-12.7549 L 26.2822,-9.96289
 L 31.2764,-7.04785 L 33.7041,-5.80469 L 34.9873,-5.29199 L 36.459,-4.78418 L 38.1387,-4.2168 L 40.7529,-3.56445
 L 47.2725,-2.34473 L 49.1152,-2.2002 L 51.6201,-2.17871 z
" stroke="black" fill="lightgray" stroke-width="0.5"/>
</svg>
