999
"DXF R12 Output" (www.mydxf.blogspot.com)
 0 
SECTION
 2 
HEADER
 9 
$ACADVER
 1 
AC1009
 9 
$EXTMIN
 10 
 0 
 20 
 0 
 9 
$EXTMAX
 10 
 8.5 
 20 
 11 
 0 
ENDSEC
 0 
SECTION
 2 
ENTITIES
0
LINE
8
Layer1
10
0.793749
20
297.794000
11
-0.793749
21
296.206000
0
LINE
8
Layer1
10
0.000000
20
298.323000
11
0.000000
21
295.677000
0
LINE
8
Layer1
10
2.116660
20
295.942000
11
1.058330
21
294.883670
0
LINE
8
Layer1
10
1.587500
20
296.471000
11
0.529170
21
295.412670
0
LINE
8
Layer1
10
1.058330
20
297.000000
11
0.000000
21
295.941670
0
LINE
8
main1
10
22.979000
20
1.000410
11
20.777100
21
1.474020
0
LINE
8
main1
10
20.777100
20
1.474020
11
18.436700
21
2.198980
0
LINE
8
main1
10
18.436700
20
2.198980
11
16.167200
21
3.098560
0
LINE
8
main1
10
16.167200
20
3.098560
11
14.177700
21
4.101330
0
LINE
8
main1
10
14.177700
20
4.101330
11
11.578700
21
5.974570
0
LINE
8
main1
10
11.578700
20
5.974570
11
8.851680
21
8.527800
0
LINE
8
main1
10
8.851680
20
8.527800
11
6.419470
21
11.321800
0
LINE
8
main1
10
6.419470
20
11.321800
11
4.704840
21
13.920000
0
LINE
8
main1
10
4.704840
20
13.920000
11
3.552320
21
16.454700
0
LINE
8
main1
10
3.552320
20
16.454700
11
2.710600
21
19.013200
0
LINE
8
main1
10
2.710600
20
19.013200
11
2.153520
21
21.696100
0
LINE
8
main1
10
2.153520
20
21.696100
11
1.854910
21
24.603900
0
LINE
8
main1
10
1.854910
20
24.603900
11
1.783430
21
26.545900
0
LINE
8
main1
10
1.783430
20
26.545900
11
1.864960
21
28.263000
0
LINE
8
main1
10
1.864960
20
28.263000
11
2.697950
21
33.152800
0
LINE
8
main1
10
2.697950
20
33.152800
11
3.541730
21
38.061100
0
LINE
8
main1
10
3.541730
20
38.061100
11
3.547160
21
39.586400
0
LINE
8
main1
10
3.547160
20
39.586400
11
3.348770
21
41.431100
0
LINE
8
main1
10
3.348770
20
41.431100
11
2.842550
21
44.269300
0
LINE
8
main1
10
2.842550
20
44.269300
11
2.170050
21
46.766400
0
LINE
8
main1
10
2.170050
20
46.766400
11
1.212270
21
49.554600
0
LINE
8
main1
10
1.212270
20
49.554600
11
1.319030
21
50.078700
0
LINE
8
main1
10
1.319030
20
50.078700
11
1.996810
21
50.581200
0
LINE
8
main1
10
1.996810
20
50.581200
11
2.948220
21
51.073000
0
LINE
8
main1
10
2.948220
20
51.073000
11
3.774940
21
49.166700
0
LINE
8
main1
10
3.774940
20
49.166700
11
4.632560
21
46.934400
0
LINE
8
main1
10
4.632560
20
46.934400
11
5.186040
21
44.786000
0
LINE
8
main1
10
5.186040
20
44.786000
11
5.490360
21
42.432500
0
LINE
8
main1
10
5.490360
20
42.432500
11
5.600510
21
39.585900
0
LINE
8
main1
10
5.600510
20
39.585900
11
5.509760
21
36.128800
0
LINE
8
main1
10
5.509760
20
36.128800
11
5.118700
21
33.860000
0
LINE
8
main1
10
5.118700
20
33.860000
11
4.388960
21
30.430000
0
LINE
8
main1
10
4.388960
20
30.430000
11
4.085000
21
26.696700
0
LINE
8
main1
10
4.085000
20
26.696700
11
4.214650
21
22.995200
0
LINE
8
main1
10
4.214650
20
22.995200
11
4.785700
21
19.656200
0
LINE
8
main1
10
4.785700
20
19.656200
11
5.722510
21
16.933600
0
LINE
8
main1
10
5.722510
20
16.933600
11
7.059950
21
14.314200
0
LINE
8
main1
10
7.059950
20
14.314200
11
8.747430
21
11.851000
0
LINE
8
main1
10
8.747430
20
11.851000
11
10.734300
21
9.594070
0
LINE
8
main1
10
10.734300
20
9.594070
11
12.970100
21
7.593820
0
LINE
8
main1
10
12.970100
20
7.593820
11
15.404000
21
5.900490
0
LINE
8
main1
10
15.404000
20
5.900490
11
17.985600
21
4.569640
0
LINE
8
main1
10
17.985600
20
4.569640
11
20.664100
21
3.648890
0
LINE
8
main1
10
20.664100
20
3.648890
11
23.208300
21
3.265250
0
LINE
8
main1
10
23.208300
20
3.265250
11
26.474200
21
3.140890
0
LINE
8
main1
10
26.474200
20
3.140890
11
29.837600
21
3.267890
0
LINE
8
main1
10
29.837600
20
3.267890
11
32.674400
21
3.654180
0
LINE
8
main1
10
32.674400
20
3.654180
11
35.203800
21
4.379140
0
LINE
8
main1
10
35.203800
20
4.379140
11
37.692000
21
5.434830
0
LINE
8
main1
10
37.692000
20
5.434830
11
40.097600
21
6.792140
0
LINE
8
main1
10
40.097600
20
6.792140
11
42.379800
21
8.416680
0
LINE
8
main1
10
42.379800
20
8.416680
11
44.497600
21
10.274000
0
LINE
8
main1
10
44.497600
20
10.274000
11
46.409700
21
12.335200
0
LINE
8
main1
10
46.409700
20
12.335200
11
48.075000
21
14.562900
0
LINE
8
main1
10
48.075000
20
14.562900
11
49.452400
21
16.928300
0
LINE
8
main1
10
49.452400
20
16.928300
11
50.639600
21
19.560900
0
LINE
8
main1
10
50.639600
20
19.560900
11
51.409800
21
22.074500
0
LINE
8
main1
10
51.409800
20
22.074500
11
51.868300
21
24.934600
0
LINE
8
main1
10
51.868300
20
24.934600
11
52.120700
21
28.599100
0
LINE
8
main1
10
52.120700
20
28.599100
11
52.444600
21
33.206300
0
LINE
8
main1
10
52.444600
20
33.206300
11
52.748600
21
34.299200
0
LINE
8
main1
10
52.748600
20
34.299200
11
53.269800
21
35.301200
0
LINE
8
main1
10
53.269800
20
35.301200
11
54.343500
21
36.841600
0
LINE
8
main1
10
54.343500
20
36.841600
11
55.677000
21
38.292100
0
LINE
8
main1
10
55.677000
20
38.292100
11
57.128000
21
39.515500
0
LINE
8
main1
10
57.128000
20
39.515500
11
58.554100
21
40.375100
0
LINE
8
main1
10
58.554100
20
40.375100
11
59.226400
21
40.639700
0
LINE
8
main1
10
59.226400
20
40.639700
11
60.165100
21
40.826000
0
LINE
8
main1
10
60.165100
20
40.826000
11
64.391800
21
41.031000
0
LINE
8
main1
10
64.391800
20
41.031000
11
76.031100
21
41.135000
0
LINE
8
main1
10
76.031100
20
41.135000
11
92.069100
21
41.228700
0
LINE
8
main1
10
92.069100
20
41.228700
11
92.069100
21
40.097600
0
LINE
8
main1
10
92.069100
20
40.097600
11
92.069100
21
38.966800
0
LINE
8
main1
10
92.069100
20
38.966800
11
81.456900
21
38.946100
0
LINE
8
main1
10
81.456900
20
38.946100
11
72.063900
21
38.868300
0
LINE
8
main1
10
72.063900
20
38.868300
11
65.205400
21
38.673600
0
LINE
8
main1
10
65.205400
20
38.673600
11
60.776600
21
38.356900
0
LINE
8
main1
10
60.776600
20
38.356900
11
58.673100
21
37.913400
0
LINE
8
main1
10
58.673100
20
37.913400
11
57.585700
21
37.112800
0
LINE
8
main1
10
57.585700
20
37.112800
11
56.376800
21
35.920100
0
LINE
8
main1
10
56.376800
20
35.920100
11
55.443600
21
34.641600
0
LINE
8
main1
10
55.443600
20
34.641600
11
54.855200
21
33.098800
0
LINE
8
main1
10
54.855200
20
33.098800
11
54.498000
21
30.834800
0
LINE
8
main1
10
54.498000
20
30.834800
11
54.258600
21
27.397900
0
LINE
8
main1
10
54.258600
20
27.397900
11
53.985800
21
24.320800
0
LINE
8
main1
10
53.985800
20
24.320800
11
53.499700
21
21.585000
0
LINE
8
main1
10
53.499700
20
21.585000
11
52.786700
21
19.129600
0
LINE
8
main1
10
52.786700
20
19.129600
11
51.833100
21
16.899200
0
LINE
8
main1
10
51.833100
20
16.899200
11
50.264700
21
14.097300
0
LINE
8
main1
10
50.264700
20
14.097300
11
48.515300
21
11.559900
0
LINE
8
main1
10
48.515300
20
11.559900
11
46.582200
21
9.284510
0
LINE
8
main1
10
46.582200
20
9.284510
11
44.462900
21
7.271030
0
LINE
8
main1
10
44.462900
20
7.271030
11
42.155200
21
5.514200
0
LINE
8
main1
10
42.155200
20
5.514200
11
39.656500
21
4.011370
0
LINE
8
main1
10
39.656500
20
4.011370
11
36.964100
21
2.765180
0
LINE
8
main1
10
36.964100
20
2.765180
11
34.075900
21
1.770350
0
LINE
8
main1
10
34.075900
20
1.770350
11
31.440700
21
1.188270
0
LINE
8
main1
10
31.440700
20
1.188270
11
28.505900
21
0.854894
0
LINE
8
main1
10
28.505900
20
0.854894
11
25.582200
21
0.783457
0
LINE
8
main1
10
25.582200
20
0.783457
11
22.979100
21
1.000410
0
LINE
8
main1
10
22.979100
20
1.000410
11
22.979000
21
1.000410
 0 
ENDSEC
 0 
EOF