999
DXF from OpenSCAD
  0
SECTION
  2
HEADER
  9
$ACADVER
  1
AC1006
  9
$INSBASE
 10
0.0
 20
0.0
 30
0.0
  9
$EXTMIN
 10
3.29785
 20
2.17871
  9
$EXTMAX
 10
163.336
 20
89.7812
  9
$LINMIN
 10
3.29785
 20
2.17871
  9
$LINMAX
 10
163.336
 20
89.7812
  0
ENDSEC
  0
SECTION
  2
TABLES
  0
TABLE
  2
LTYPE
 70
1
  0
LTYPE
  2
CONTINUOUS
 70
64
  3
Solid line
 72
65
 73
0
 40
0.000000
  0
ENDTAB
  0
TABLE
  2
LAYER
 70
6
  0
LAYER
  2
0
 70
64
 62
7
  6
CONTINUOUS
  0
ENDTAB
  0
TABLE
  2
STYLE
 70
0
  0
ENDTAB
  0
ENDSEC
  0
SECTION
  2
BLOCKS
  0
ENDSEC
  0
SECTION
  2
ENTITIES
  0
LWPOLYLINE
100
AcDbEntity
  8
0
100
AcDbPolyline
 90
147
 70
1
 10
57.2012
 20
2.4873
 10
61.1797
 20
3.06738
 10
65.1289
 20
3.9873
 10
69.0107
 20
5.23047
 10
72.7842
 20
6.77832
 10
76.4121
 20
8.6123
 10
79.8535
 20
10.7148
 10
83.0693
 20
13.0674
 10
86.0205
 20
15.6533
 10
88.2686
 20
18.0859
 10
90.749
 20
21.1807
 10
93.0234
 20
24.3604
 10
94.6543
 20
27.0449
 10
95.9424
 20
29.7207
 10
97.0312
 20
32.3975
 10
97.9297
 20
35.1084
 10
98.6436
 20
37.8867
 10
99.1797
 20
40.7646
 10
99.5469
 20
43.7744
 10
99.751
 20
46.9502
 10
99.7998
 20
50.3242
 10
99.79
 20
53.874
 10
99.8926
 20
55.9248
 10
100.201
 20
57.2529
 10
100.812
 20
58.6328
 10
101.964
 20
60.5908
 10
103.436
 20
62.3643
 10
105.136
 20
63.8594
 10
106.974
 20
64.9805
 10
108.832
 20
65.876
 10
127.353
 20
66.0977
 10
154.604
 20
66.3213
 10
163.336
 20
66.3223
 10
163.336
 20
71.9668
 10
138.906
 20
72.0547
 10
119.229
 20
72.127
 10
109.883
 20
72.0654
 10
107.747
 20
71.9424
 10
106.589
 20
71.7373
 10
105.064
 20
71.0137
 10
103.33
 20
70.1064
 10
101.716
 20
69.0654
 10
100.221
 20
67.8906
 10
98.8447
 20
66.5801
 10
97.5879
 20
65.1338
 10
96.4473
 20
63.5508
 10
95.4238
 20
61.8311
 10
94.5176
 20
59.9727
 10
94.0371
 20
58.7109
 10
93.7773
 20
57.165
 10
93.6289
 20
49.918
 10
93.4805
 20
42.9893
 10
93.291
 20
41
 10
92.9971
 20
39.5117
 10
92.1328
 20
36.5898
 10
91.0967
 20
33.7842
 10
89.8896
 20
31.0957
 10
88.5146
 20
28.5283
 10
86.9727
 20
26.084
 10
85.2656
 20
23.7666
 10
83.3945
 20
21.5781
 10
81.3613
 20
19.5225
 10
79.2744
 20
17.6787
 10
77.0957
 20
15.9902
 10
74.8252
 20
14.457
 10
72.4619
 20
13.0791
 10
70.0078
 20
11.8555
 10
67.46
 20
10.7861
 10
64.8203
 20
9.87207
 10
62.0889
 20
9.11328
 10
60.1406
 20
8.68848
 10
58.2617
 20
8.44141
 10
52.7402
 20
8.30566
 10
47.4746
 20
8.45801
 10
43.9209
 20
8.93066
 10
40.8164
 20
9.72461
 10
37.8271
 20
10.7334
 10
34.9619
 20
11.9492
 10
32.2275
 20
13.3633
 10
29.6328
 20
14.9658
 10
27.1865
 20
16.75
 10
24.8965
 20
18.7041
 10
22.7715
 20
20.8223
 10
20.8184
 20
23.0928
 10
19.0469
 20
25.5098
 10
17.4639
 20
28.0615
 10
16.0791
 20
30.7412
 10
14.8994
 20
33.5391
 10
13.9336
 20
36.4463
 10
13.1895
 20
39.4551
 10
12.6768
 20
42.5547
 10
12.4258
 20
46.085
 10
12.4512
 20
49.9043
 10
12.7256
 20
53.3447
 10
13.2207
 20
55.7393
 10
13.7432
 20
57.502
 10
14.1631
 20
59.5762
 10
14.6758
 20
64.3252
 10
14.7207
 20
69.3232
 10
14.5557
 20
71.708
 10
14.2598
 20
73.9053
 10
13.4941
 20
77.248
 10
12.377
 20
81.0459
 10
11.1934
 20
84.4033
 10
10.2334
 20
86.4268
 10
9.51758
 20
87.7197
 10
8.83203
 20
88.8994
 10
8.1543
 20
89.7812
 10
5.80078
 20
88.5469
 10
4.09473
 20
87.5645
 10
3.29785
 20
86.9355
 10
3.55957
 20
86.0615
 10
4.39648
 20
84.4873
 10
5.64453
 20
82.0947
 10
6.1416
 20
80.6631
 10
7.16699
 20
77.9492
 10
7.94141
 20
74.9912
 10
8.46191
 20
71.8535
 10
8.72656
 20
68.6006
 10
8.7334
 20
65.2979
 10
8.47754
 20
62.0107
 10
7.95801
 20
58.8027
 10
7.17188
 20
55.7393
 10
6.87988
 20
54.5098
 10
6.69238
 20
52.915
 10
6.55664
 20
47.625
 10
6.74902
 20
41.7832
 10
7.0332
 20
39.2852
 10
7.47266
 20
36.9414
 10
8.08789
 20
34.6553
 10
8.90039
 20
32.333
 10
11.209
 20
27.1924
 10
12.9297
 20
24.0918
 10
15.0303
 20
20.8525
 10
17.2139
 20
17.9053
 10
19.1826
 20
15.6797
 10
22.5322
 20
12.7549
 10
26.2822
 20
9.96289
 10
31.2764
 20
7.04785
 10
33.7041
 20
5.80469
 10
34.9873
 20
5.29199
 10
36.459
 20
4.78418
 10
38.1387
 20
4.2168
 10
40.7529
 20
3.56445
 10
47.2725
 20
2.34473
 10
49.1152
 20
2.2002
 10
51.6201
 20
2.17871
  0
ENDSEC
  0
EOF
