999
"DXF R12 Output" (www.mydxf.blogspot.com)
 0 
SECTION
 2 
HEADER
 9 
$ACADVER
 1 
AC1009
 9 
$EXTMIN
 10 
 0 
 20 
 0 
 9 
$EXTMAX
 10 
 8.5 
 20 
 11 
 0 
ENDSEC
 0 
SECTION
 2 
ENTITIES
0
LINE
8
Image
10
47.272200
20
2.345000
11
40.752790
21
3.564579
0
LINE
8
Image
10
40.752790
20
3.564579
11
38.138544
21
4.217023
0
LINE
8
Image
10
38.138544
20
4.217023
11
36.459200
21
4.784080
0
LINE
8
Image
10
36.459200
20
4.784080
11
34.987550
21
5.291815
0
LINE
8
Image
10
34.987550
20
5.291815
11
33.704054
21
5.804468
0
LINE
8
Image
10
33.704054
20
5.804468
11
31.276793
21
7.048133
0
LINE
8
Image
10
31.276793
20
7.048133
11
26.281970
21
9.962735
0
LINE
8
Image
10
26.281970
20
9.962735
11
22.531846
21
12.754842
0
LINE
8
Image
10
22.531846
20
12.754842
11
19.182200
21
15.679200
0
LINE
8
Image
10
19.182200
20
15.679200
11
17.213928
21
17.905281
0
LINE
8
Image
10
17.213928
20
17.905281
11
15.030650
21
20.852525
0
LINE
8
Image
10
15.030650
20
20.852525
11
12.929872
21
24.091331
0
LINE
8
Image
10
12.929872
20
24.091331
11
11.209100
21
27.192100
0
LINE
8
Image
10
11.209100
20
27.192100
11
8.900841
21
32.332722
0
LINE
8
Image
10
8.900841
20
32.332722
11
8.087493
21
34.655508
0
LINE
8
Image
10
8.087493
20
34.655508
11
7.472254
21
36.940975
0
LINE
8
Image
10
7.472254
20
36.940975
11
7.033315
21
39.284895
0
LINE
8
Image
10
7.033315
20
39.284895
11
6.748867
21
41.783041
0
LINE
8
Image
10
6.748867
20
41.783041
11
6.556210
21
47.625100
0
LINE
8
Image
10
6.556210
20
47.625100
11
6.692583
21
52.914938
0
LINE
8
Image
10
6.692583
20
52.914938
11
6.879690
21
54.509720
0
LINE
8
Image
10
6.879690
20
54.509720
11
7.171450
21
55.739000
0
LINE
8
Image
10
7.171450
20
55.739000
11
7.957907
21
58.802474
0
LINE
8
Image
10
7.957907
20
58.802474
11
8.477530
21
62.010507
0
LINE
8
Image
10
8.477530
20
62.010507
11
8.732997
21
65.298253
0
LINE
8
Image
10
8.732997
20
65.298253
11
8.726986
21
68.600867
0
LINE
8
Image
10
8.726986
20
68.600867
11
8.462178
21
71.853504
0
LINE
8
Image
10
8.462178
20
71.853504
11
7.941250
21
74.991319
0
LINE
8
Image
10
7.941250
20
74.991319
11
7.166881
21
77.949466
0
LINE
8
Image
10
7.166881
20
77.949466
11
6.141750
21
80.663100
0
LINE
8
Image
10
6.141750
20
80.663100
11
5.644443
21
82.094960
0
LINE
8
Image
10
5.644443
20
82.094960
11
4.396683
21
84.487280
0
LINE
8
Image
10
4.396683
20
84.487280
11
3.559312
21
86.061328
0
LINE
8
Image
10
3.559312
20
86.061328
11
3.298223
21
86.935970
0
LINE
8
Image
10
3.298223
20
86.935970
11
4.095030
21
87.564536
0
LINE
8
Image
10
4.095030
20
87.564536
11
5.801103
21
88.546950
0
LINE
8
Image
10
5.801103
20
88.546950
11
8.154683
21
89.781340
0
LINE
8
Image
10
8.154683
20
89.781340
11
8.831995
21
88.899724
0
LINE
8
Image
10
8.831995
20
88.899724
11
9.517151
21
87.719784
0
LINE
8
Image
10
9.517151
20
87.719784
11
10.233274
21
86.426784
0
LINE
8
Image
10
10.233274
20
86.426784
11
11.193636
21
84.403576
0
LINE
8
Image
10
11.193636
20
84.403576
11
12.376511
21
81.045935
0
LINE
8
Image
10
12.376511
20
81.045935
11
13.494283
21
77.248369
0
LINE
8
Image
10
13.494283
20
77.248369
11
14.259334
21
73.905384
0
LINE
8
Image
10
14.259334
20
73.905384
11
14.555351
21
71.707876
0
LINE
8
Image
10
14.555351
20
71.707876
11
14.720216
21
69.323368
0
LINE
8
Image
10
14.720216
20
69.323368
11
14.675467
21
64.325473
0
LINE
8
Image
10
14.675467
20
64.325473
11
14.163043
21
59.575937
0
LINE
8
Image
10
14.163043
20
59.575937
11
13.743314
21
57.501879
0
LINE
8
Image
10
13.743314
20
57.501879
11
13.220900
21
55.739000
0
LINE
8
Image
10
13.220900
20
55.739000
11
12.725434
21
53.345052
0
LINE
8
Image
10
12.725434
20
53.345052
11
12.451125
21
49.904338
0
LINE
8
Image
10
12.451125
20
49.904338
11
12.425553
21
46.084855
0
LINE
8
Image
10
12.425553
20
46.084855
11
12.676300
21
42.554600
0
LINE
8
Image
10
12.676300
20
42.554600
11
13.189781
21
39.454625
0
LINE
8
Image
10
13.189781
20
39.454625
11
13.933533
21
36.446499
0
LINE
8
Image
10
13.933533
20
36.446499
11
14.899333
21
33.539068
0
LINE
8
Image
10
14.899333
20
33.539068
11
16.078963
21
30.741179
0
LINE
8
Image
10
16.078963
20
30.741179
11
17.464199
21
28.061679
0
LINE
8
Image
10
17.464199
20
28.061679
11
19.046823
21
25.509415
0
LINE
8
Image
10
19.046823
20
25.509415
11
20.818614
21
23.093234
0
LINE
8
Image
10
20.818614
20
23.093234
11
22.771350
21
20.821983
0
LINE
8
Image
10
22.771350
20
20.821983
11
24.896811
21
18.704507
0
LINE
8
Image
10
24.896811
20
18.704507
11
27.186777
21
16.749656
0
LINE
8
Image
10
27.186777
20
16.749656
11
29.633026
21
14.966274
0
LINE
8
Image
10
29.633026
20
14.966274
11
32.227338
21
13.363210
0
LINE
8
Image
10
32.227338
20
13.363210
11
34.961492
21
11.949309
0
LINE
8
Image
10
34.961492
20
11.949309
11
37.827267
21
10.733419
0
LINE
8
Image
10
37.827267
20
10.733419
11
40.816444
21
9.724387
0
LINE
8
Image
10
40.816444
20
9.724387
11
43.920800
21
8.931060
0
LINE
8
Image
10
43.920800
20
8.931060
11
47.474994
21
8.458344
0
LINE
8
Image
10
47.474994
20
8.458344
11
52.740230
21
8.305887
0
LINE
8
Image
10
52.740230
20
8.305887
11
58.262120
21
8.441009
0
LINE
8
Image
10
58.262120
20
8.441009
11
60.140747
21
8.688653
0
LINE
8
Image
10
60.140747
20
8.688653
11
62.088830
21
9.113140
0
LINE
8
Image
10
62.088830
20
9.113140
11
64.820793
21
9.872467
0
LINE
8
Image
10
64.820793
20
9.872467
11
67.460283
21
10.786473
0
LINE
8
Image
10
67.460283
20
10.786473
11
70.007412
21
11.855217
0
LINE
8
Image
10
70.007412
20
11.855217
11
72.462291
21
13.078760
0
LINE
8
Image
10
72.462291
20
13.078760
11
74.825031
21
14.457163
0
LINE
8
Image
10
74.825031
20
14.457163
11
77.095744
21
15.990487
0
LINE
8
Image
10
77.095744
20
15.990487
11
79.274539
21
17.678793
0
LINE
8
Image
10
79.274539
20
17.678793
11
81.361530
21
19.522140
0
LINE
8
Image
10
81.361530
20
19.522140
11
83.394513
21
21.578121
0
LINE
8
Image
10
83.394513
20
21.578121
11
85.265533
21
23.766328
0
LINE
8
Image
10
85.265533
20
23.766328
11
86.972915
21
26.083884
0
LINE
8
Image
10
86.972915
20
26.083884
11
88.514984
21
28.527912
0
LINE
8
Image
10
88.514984
20
28.527912
11
89.890065
21
31.095539
0
LINE
8
Image
10
89.890065
20
31.095539
11
91.096483
21
33.783886
0
LINE
8
Image
10
91.096483
20
33.783886
11
92.132563
21
36.590078
0
LINE
8
Image
10
92.132563
20
36.590078
11
92.996630
21
39.511240
0
LINE
8
Image
10
92.996630
20
39.511240
11
93.291331
21
41.000098
0
LINE
8
Image
10
93.291331
20
41.000098
11
93.480282
21
42.989566
0
LINE
8
Image
10
93.480282
20
42.989566
11
93.628901
21
49.918140
0
LINE
8
Image
10
93.628901
20
49.918140
11
93.777783
21
57.164805
0
LINE
8
Image
10
93.777783
20
57.164805
11
94.037174
21
58.710507
0
LINE
8
Image
10
94.037174
20
58.710507
11
94.517154
21
59.972340
0
LINE
8
Image
10
94.517154
20
59.972340
11
95.424195
21
61.830754
0
LINE
8
Image
10
95.424195
20
61.830754
11
96.447408
21
63.551100
0
LINE
8
Image
10
96.447408
20
63.551100
11
97.587466
21
65.134082
0
LINE
8
Image
10
97.587466
20
65.134082
11
98.845045
21
66.580406
0
LINE
8
Image
10
98.845045
20
66.580406
11
100.220819
21
67.890779
0
LINE
8
Image
10
100.220819
20
67.890779
11
101.715462
21
69.065905
0
LINE
8
Image
10
101.715462
20
69.065905
11
103.329649
21
70.106490
0
LINE
8
Image
10
103.329649
20
70.106490
11
105.064054
21
71.013240
0
LINE
8
Image
10
105.064054
20
71.013240
11
106.588429
21
71.737737
0
LINE
8
Image
10
106.588429
20
71.737737
11
107.746892
21
71.942796
0
LINE
8
Image
10
107.746892
20
71.942796
11
109.883007
21
72.065017
0
LINE
8
Image
10
109.883007
20
72.065017
11
119.228595
21
72.126824
0
LINE
8
Image
10
119.228595
20
72.126824
11
138.906000
21
72.054900
0
LINE
8
Image
10
138.906000
20
72.054900
11
163.335800
21
71.966706
0
LINE
8
Image
10
163.335800
20
71.966706
11
163.336000
21
69.144500
0
LINE
8
Image
10
163.336000
20
69.144500
11
163.336000
21
66.322300
0
LINE
8
Image
10
163.336000
20
66.322300
11
154.604760
21
66.321109
0
LINE
8
Image
10
154.604760
20
66.321109
11
127.352760
21
66.097968
0
LINE
8
Image
10
127.352760
20
66.097968
11
108.831960
21
65.876007
0
LINE
8
Image
10
108.831960
20
65.876007
11
106.973890
21
64.980642
0
LINE
8
Image
10
106.973890
20
64.980642
11
105.136092
21
63.858943
0
LINE
8
Image
10
105.136092
20
63.858943
11
103.435924
21
62.364575
0
LINE
8
Image
10
103.435924
20
62.364575
11
101.964264
21
60.591165
0
LINE
8
Image
10
101.964264
20
60.591165
11
100.811990
21
58.632342
0
LINE
8
Image
10
100.811990
20
58.632342
11
100.201628
21
57.252843
0
LINE
8
Image
10
100.201628
20
57.252843
11
99.892414
21
55.924989
0
LINE
8
Image
10
99.892414
20
55.924989
11
99.789920
21
53.873777
0
LINE
8
Image
10
99.789920
20
53.873777
11
99.799720
21
50.324202
0
LINE
8
Image
10
99.799720
20
50.324202
11
99.750827
21
46.950476
0
LINE
8
Image
10
99.750827
20
46.950476
11
99.546613
21
43.774819
0
LINE
8
Image
10
99.546613
20
43.774819
11
99.179834
21
40.764464
0
LINE
8
Image
10
99.179834
20
40.764464
11
98.643248
21
37.886645
0
LINE
8
Image
10
98.643248
20
37.886645
11
97.929612
21
35.108596
0
LINE
8
Image
10
97.929612
20
35.108596
11
97.031682
21
32.397550
0
LINE
8
Image
10
97.031682
20
32.397550
11
95.942216
21
29.720741
0
LINE
8
Image
10
95.942216
20
29.720741
11
94.653970
21
27.045402
0
LINE
8
Image
10
94.653970
20
27.045402
11
93.023528
21
24.360184
0
LINE
8
Image
10
93.023528
20
24.360184
11
90.748863
21
21.180851
0
LINE
8
Image
10
90.748863
20
21.180851
11
88.268318
21
18.085794
0
LINE
8
Image
10
88.268318
20
18.085794
11
86.020240
21
15.653402
0
LINE
8
Image
10
86.020240
20
15.653402
11
83.069217
21
13.067638
0
LINE
8
Image
10
83.069217
20
13.067638
11
79.853377
21
10.714492
0
LINE
8
Image
10
79.853377
20
10.714492
11
76.412073
21
8.611944
0
LINE
8
Image
10
76.412073
20
8.611944
11
72.784654
21
6.777971
0
LINE
8
Image
10
72.784654
20
6.777971
11
69.010470
21
5.230552
0
LINE
8
Image
10
69.010470
20
5.230552
11
65.128873
21
3.987666
0
LINE
8
Image
10
65.128873
20
3.987666
11
61.179213
21
3.067290
0
LINE
8
Image
10
61.179213
20
3.067290
11
57.200840
21
2.487402
0
LINE
8
Image
10
57.200840
20
2.487402
11
51.619690
21
2.178439
0
LINE
8
Image
10
51.619690
20
2.178439
11
49.115369
21
2.199755
0
LINE
8
Image
10
49.115369
20
2.199755
11
47.272260
21
2.345017
0
LINE
8
Image
10
47.272260
20
2.345017
11
47.272200
21
2.345000
 0 
ENDSEC
 0 
EOF